<svg viewBox="0 0 388 388" xmlns="http://www.w3.org/2000/svg" preserveAspectRatio="xMidYMid meet">
  <defs>
    <mask id="mask">
      <path d="m192.89015,104.24084c-27.33296,41.54678 -100.03934,25.69299 -100.03934,25.69299c-47.55936,-14.21381 -38.81349,-44.82675 -38.81349,-44.82675c20.2264,-30.61292 38.26683,-7.10657 38.26683,-7.10657c3.28062,6.55991 -3.28062,6.55991 -3.28062,6.55991c-20.22707,-9.83987 -16.39978,6.01324 -16.39978,6.01324c16.94643,25.69303 58.49255,-11.47984 58.49255,-11.47984c40.4528,-27.87962 62.64932,5.23394 62.64932,5.23394l2.43877,-1.95398c0,0 20.22708,-31.15959 60.67986,-3.27996c0,0 41.54544,37.17349 58.49188,11.47984c0,0 3.82797,-15.85309 -16.39911,-6.01317c0,0 -6.56125,0 -3.28064,-6.55992c0,0 18.04047,-23.50568 38.26617,7.10658c0,0 8.74655,30.61293 -38.81281,44.82674c0,0 -72.70706,15.85379 -100.04001,-25.69299" fill="#fff"/>
    </mask>

  </defs>
 <g id="bart">
  <title>Moustashe</title>
  <g mask="url(#mask)">
    <rect x="44" y="20" width="300" height="150" fill="#3d93d0"/>
    <line x1="54" y1="30" x2="334" y2="160" stroke="#fff" stroke-width="20" stroke-linecap="round"/>
    <line x1="334" y1="30" x2="54" y2="160" stroke="#fff" stroke-width="20" stroke-linecap="round"/>
  </g>

 </g>
</svg>